<svg id="Layer_2" data-name="Layer 2" xmlns="http://www.w3.org/2000/svg" viewBox="0 0 379.46 308.46">
    <defs>
        <style>
            .cls-1{fill:#f1ffff;stroke-width:0}
        </style>
    </defs>
    <g id="Layer_1-2" data-name="Layer 1">
        <path d="M324.97 214.58c-11.55-56.17-38.2-119.25-67.06-152.44C229.65 29.64 175.15 1 118.41 1S57.7 38.67 57.7 38.67s25.79-8.69 50.54-.66c24.74 8.03 36.36 43.25 31.99 75.98-2.94 22.07-32.88 62.72-58.29 93.83C33.02 217.71 1 234.14 1 252.74c0 30.22 84.5 54.72 188.73 54.72s188.73-24.5 188.73-54.72c0-14.84-20.4-28.31-53.5-38.16Z" style="fill:#95019b;stroke:#000;stroke-miterlimit:10;stroke-width:2px"/>
        <path class="cls-1" d="M174.64 35.22c3.32 7.9 4.88 12.25 7.71 21.73 8.58-.78 12.87-1.16 21.45-1.94-6.8 8.19-10.29 11.65-17.35 17.32 2.21 9.2 3.97 18.64 5.3 28.01-6.31-9.42-9.59-13.51-16.28-20.44-7.15 4.12-10.76 5.55-17.93 7.15 3.16-5.88 4.67-9.21 7.47-16.65-6.85-5.38-10.35-7.44-17.35-10.3 8.58-.78 12.87-1.16 21.45-1.94 2.5-8.4 3.63-12.99 5.54-22.93ZM99.52 19.97c6.49-1.2 9.81-1.05 15.96.45 2.85-2.96 4.5-4.33 8.18-6.7.79 4.13.96 6.19.88 10.19 5.54 3 8.07 5.1 12.01 10.25-4.97-2.89-7.62-3.64-12.52-4.18-.58 3.85-1.08 5.71-2.44 9.21-1.02-3.72-1.98-5.67-4.82-9.09-4.46.66-6.5 1.48-9.8 3.6 1.33-3.52 2.25-5.25 4.53-8.49-3.96-2.85-6.41-4.05-11.99-5.25ZM252.34 65.71c3.97 9.72 5.23 14.67 6.54 24.21 8.43 4.89 12.57 7.97 20.12 15.43-7.81-.99-11.69-1.18-19.28-.96-.19 9.15-.9 13.55-3.22 21.66-2.24-8.76-3.95-12.98-8.35-20.77-7.38.94-10.99 1.69-17.92 3.74 4.46-5.7 6.51-8.75 10.17-15.18-5.62-6.99-8.92-10.17-16.3-15.54 8.51.93 12.91 1.95 21.56 5.28 3.13-6.84 4.49-10.43 6.69-17.87ZM200.4 129.57c2.73 10.27 4.4 15.49 7.52 25.94h24.33c-7.59 6.46-11.7 9.69-19.68 16.15 2.84 10.45 4.15 15.67 5.7 25.93-6.42-6.34-10.16-9.55-17.86-15.98-7.7 6.43-11.45 9.63-17.86 15.98 1.55-10.27 2.86-15.49 5.7-25.93-7.98-6.46-12.09-9.69-19.68-16.15h24.33c3.11-10.45 4.79-15.67 7.52-25.94ZM266.55 167.81c7.5 5.82 11.2 9.43 18.29 18.04 8.06-5.03 15.97-10.98 23.1-17.26-3.74 10.98-7.73 21.29-12.46 31.88 6.11 9.31 10.86 19.17 15.61 29.2-9.73-5.73-14.64-8.27-24.53-12.66-6.03 9.92-9.25 14.25-15.87 21.59.76-11.23.86-16.79.54-27.73-9.96-3.56-14.97-5-25.02-7.2 9.67-2.86 14.49-4.77 24.02-9.54-.96-10.73-1.71-16.01-3.67-26.33ZM197.55 241.23c3.87 8.03 6.05 12.02 10.88 19.93 11.71-.32 23.41-1.17 35.05-2.54-8.64 5.43-17.86 10.4-27.12 14.68 5.43 7.81 8.38 11.67 14.76 19.28-11.36-3.18-22.58-6.89-33.56-11.19A351.07 351.07 0 0 1 164 292.58c6.38-7.61 9.33-11.48 14.76-19.28-9.26-4.28-18.48-9.25-27.12-14.68 11.64 1.37 23.33 2.22 35.05 2.54 4.83-7.9 7.01-11.9 10.88-19.93ZM121.93 194.56c-.39 11.3-.73 16.75-1.65 27.21 9.8 3.48 14.95 5.46 26.06 9.66-8.74 3.04-18.5 5.18-27.71 6.09-1.22 9.93-1.95 14.68-3.63 23.74-6.19-10.07-8.95-14.68-14-22.98-9.42-.11-19.5-1.43-28.63-3.74 8.83-1.46 13.19-3.13 21.29-8.21-4.47-7.16-6.47-10.27-10.23-15.51 8.62 1.85 12.98 3.08 22.19 5.99 7.34-7.23 10.7-11.72 16.32-22.26Z"/>
    </g>
</svg>
